<?xml version="1.0" encoding="utf-8"?>
<!-- Svg Vector Icons : http://www.onlinewebfonts.com/icon -->
<!DOCTYPE svg PUBLIC "-//W3C//DTD SVG 1.1//EN" "http://www.w3.org/Graphics/SVG/1.1/DTD/svg11.dtd">
<svg version="1.1" xmlns="http://www.w3.org/2000/svg" xmlns:xlink="http://www.w3.org/1999/xlink" x="0px" y="0px" viewBox="0 0 1000 1000" enable-background="new 0 0 1000 1000" xml:space="preserve">
<metadata> Svg Vector Icons : http://www.onlinewebfonts.com/icon </metadata>
<g><g transform="translate(0.000000,511.000000) scale(0.100000,-0.100000)"><path d="M4555,4994.7c-1392-177.1-2586.8-1152.2-3028.4-2477c-139-419.2-168.1-623.2-168.1-1165.6c0-425.9,6.7-524.5,49.3-719.6c192.8-883.2,679.2-1656.6,1371.9-2183.3c275.7-208.5,414.7-378.8,508.8-620.9c60.5-152.4,60.5-156.9,74-903.4c11.2-737.5,11.2-753.2,62.8-836.1c105.4-168.1,255.6-239.8,499.9-239.8h154.7l49.3-103.1c80.7-172.6,269-356.4,461.8-450.6c163.6-82.9,179.3-85.2,405.7-85.2c219.7,0,248.8,4.5,390,71.7c188.3,89.7,369.9,257.8,461.8,430.4l69.5,130l186,11.2c224.2,11.2,349.7,71.7,452.8,215.2l67.2,98.6l13.4,753.2c11.2,699.4,15.7,764.4,60.5,887.7c87.4,237.6,233.1,421.4,486.4,614.2C7787.5-1116,8215.6-530.9,8460,168.5c147.9,428.1,181.5,650.1,181.5,1194.8c-2.2,414.7-9,515.6-53.8,717.3c-210.7,984.1-773.4,1809-1605,2353.7c-356.4,230.9-820.4,419.2-1277.7,515.6C5447.2,5003.6,4821.8,5028.3,4555,4994.7z M5570.5,4333.4c596.3-125.5,1098.4-385.6,1517.5-791.3c266.8-255.5,461.8-520.1,612-822.7c219.6-446.1,300.4-759.9,318.3-1255.3c17.9-538-69.5-952.7-304.8-1434.6c-217.4-446.1-526.8-818.2-934.7-1125.3c-273.5-206.2-441.6-403.5-571.6-668c-123.3-251.1-172.6-416.9-192.8-654.6l-13.5-163.6h-1002h-1002l-13.4,163.6c-38.1,423.7-244.3,854.1-547,1136.5c-71.7,67.2-215.2,188.3-316.1,266.8C2571.2-589.2,2156.5,94.5,2015.3,814c-47.1,239.9-42.6,892.2,9,1132c188.3,876.5,717.3,1605,1484,2046.6c309.3,179.3,735.2,322.8,1098.4,372.1C4828.5,4396.1,5357.6,4378.2,5570.5,4333.4z"/><path d="M4382.4,3181.2c-116.6-42.6-295.9-127.8-338.5-161.4c-20.2-15.7-13.5-44.8,15.7-103.1c107.6-210.7-2.2-482-230.9-578.3c-109.8-44.8-210.7-42.6-325,9c-69.5,33.6-98.6,38.1-114.3,17.9c-60.5-74-206.2-428.2-206.2-495.4c0-13.4,44.8-42.6,100.9-67.2c195-78.5,307.1-293.7,255.5-493.2c-33.6-132.2-134.5-248.8-255.5-295.9c-56-20.2-100.9-51.6-100.9-69.5c0-44.8,127.8-365.4,177.1-448.3l44.8-69.5l85.2,42.6c91.9,47.1,237.6,56,336.2,17.9c33.6-11.2,100.9-60.5,147.9-105.3c130-127.8,161.4-298.1,82.9-468.5l-42.6-96.4l49.3-33.6c62.8-42.6,343-159.1,430.4-177.1c62.8-13.5,69.5-6.7,107.6,87.4c152.4,372.1,665.8,358.7,802.5-22.4c26.9-74,35.9-78.5,98.7-65c87.4,17.9,369.9,134.5,432.6,179.3c44.8,31.4,44.8,38.1,15.7,82.9c-42.6,65-65,219.7-47.1,318.3c17.9,96.4,152.4,253.3,253.3,295.9c103.1,42.6,251.1,35.9,349.7-13.5l85.2-42.6l44.8,69.5c49.3,82.9,177.1,403.5,177.1,448.3c0,17.9-44.8,49.3-100.9,69.5c-230.9,89.7-336.3,372.1-221.9,598.5c38.1,78.5,145.7,168.1,244.3,201.7c42.6,15.7,78.5,42.6,78.5,58.3c0,44.8-127.8,365.4-179.3,448.3l-42.6,71.7l-96.4-42.6c-116.6-53.8-215.2-56-327.3-11.2c-228.6,96.4-338.5,367.6-230.9,578.3c29.1,58.3,35.9,87.4,15.7,103.1c-74,58.3-425.9,204-495.4,204c-15.7,0-44.8-44.8-65-100.9c-22.4-56-74-130-121.1-165.9c-219.7-183.8-567.1-96.4-668,165.9C4561.8,3237.2,4548.3,3239.5,4382.4,3181.2z M5256.7,1928.1c260-132.3,381.1-428.1,291.4-701.6c-74-221.9-320.6-401.3-549.2-401.3c-136.7,0-295.9,69.5-403.5,177.1c-318.3,318.3-188.3,827.2,246.6,968.4C4933.9,2002.1,5160.3,1977.4,5256.7,1928.1z"/></g></g>
</svg>